<mxfile host="app.diagrams.net" modified="2020-07-18T14:26:38.970Z" agent="5.0 (Windows NT 10.0; Win64; x64) AppleWebKit/537.36 (KHTML, like Gecko) Chrome/84.0.4147.89 Safari/537.36" etag="_Fe00xFXiVTIUQ6w1vtD" version="13.4.6" type="github">
  <diagram name="Page-1" id="6133507b-19e7-1e82-6fc7-422aa6c4b21f">
    <mxGraphModel dx="1422" dy="762" grid="1" gridSize="10" guides="1" tooltips="1" connect="1" arrows="1" fold="1" page="1" pageScale="1" pageWidth="1100" pageHeight="850" background="#ffffff" math="0" shadow="0">
      <root>
        <mxCell id="0" />
        <mxCell id="1" parent="0" />
        <mxCell id="78961159f06e98e8-17" value="&lt;p&gt;&lt;font style=&quot;line-height: 100% ; font-size: 14px&quot;&gt;class BellBankLMS(tk.TK)&lt;/font&gt;&lt;/p&gt;" style="swimlane;html=1;fontStyle=1;align=center;verticalAlign=top;childLayout=stackLayout;horizontal=1;startSize=40;horizontalStack=0;resizeParent=1;resizeLast=0;collapsible=1;marginBottom=0;swimlaneFillColor=#ffffff;rounded=0;shadow=0;comic=0;labelBackgroundColor=none;strokeWidth=1;fillColor=none;fontFamily=Verdana;fontSize=12" parent="1" vertex="1">
          <mxGeometry x="360" y="40" width="280" height="120" as="geometry">
            <mxRectangle x="40" y="40" width="230" height="40" as="alternateBounds" />
          </mxGeometry>
        </mxCell>
        <mxCell id="rQJpm7YTAjzAsKCCHpnl-1" value="&lt;b&gt;def __init__&lt;/b&gt;(self, *args, **kwargs)" style="rounded=0;whiteSpace=wrap;html=1;" vertex="1" parent="78961159f06e98e8-17">
          <mxGeometry y="40" width="280" height="24" as="geometry" />
        </mxCell>
        <mxCell id="rQJpm7YTAjzAsKCCHpnl-2" value="&lt;b&gt;def show_frame&lt;/b&gt;(self, page_name)" style="rounded=0;whiteSpace=wrap;html=1;" vertex="1" parent="78961159f06e98e8-17">
          <mxGeometry y="64" width="280" height="24" as="geometry" />
        </mxCell>
        <mxCell id="rQJpm7YTAjzAsKCCHpnl-4" value="&lt;p&gt;&lt;font style=&quot;line-height: 100% ; font-size: 14px&quot;&gt;class page_Menu(tk.Frame)&lt;/font&gt;&lt;/p&gt;" style="swimlane;html=1;fontStyle=1;align=center;verticalAlign=top;childLayout=stackLayout;horizontal=1;startSize=40;horizontalStack=0;resizeParent=1;resizeLast=0;collapsible=1;marginBottom=0;swimlaneFillColor=#ffffff;rounded=0;shadow=0;comic=0;labelBackgroundColor=none;strokeWidth=1;fillColor=none;fontFamily=Verdana;fontSize=12" vertex="1" parent="1">
          <mxGeometry x="380" y="180" width="240" height="90" as="geometry">
            <mxRectangle x="40" y="40" width="230" height="40" as="alternateBounds" />
          </mxGeometry>
        </mxCell>
        <mxCell id="rQJpm7YTAjzAsKCCHpnl-5" value="&lt;b&gt;def __init__&lt;/b&gt;(self, parent, controller)" style="rounded=0;whiteSpace=wrap;html=1;" vertex="1" parent="rQJpm7YTAjzAsKCCHpnl-4">
          <mxGeometry y="40" width="240" height="24" as="geometry" />
        </mxCell>
        <mxCell id="rQJpm7YTAjzAsKCCHpnl-16" value="" style="endArrow=classic;html=1;exitX=0.5;exitY=1;exitDx=0;exitDy=0;entryX=0.5;entryY=0;entryDx=0;entryDy=0;" edge="1" parent="1" source="78961159f06e98e8-17" target="rQJpm7YTAjzAsKCCHpnl-4">
          <mxGeometry width="50" height="50" relative="1" as="geometry">
            <mxPoint x="560" y="260" as="sourcePoint" />
            <mxPoint x="610" y="210" as="targetPoint" />
          </mxGeometry>
        </mxCell>
        <mxCell id="rQJpm7YTAjzAsKCCHpnl-17" value="" style="endArrow=classic;html=1;entryX=1;entryY=0;entryDx=0;entryDy=0;" edge="1" parent="1" target="rQJpm7YTAjzAsKCCHpnl-7">
          <mxGeometry width="50" height="50" relative="1" as="geometry">
            <mxPoint x="400" y="270" as="sourcePoint" />
            <mxPoint x="510" y="190" as="targetPoint" />
          </mxGeometry>
        </mxCell>
        <mxCell id="rQJpm7YTAjzAsKCCHpnl-18" value="" style="endArrow=classic;html=1;exitX=0.5;exitY=1;exitDx=0;exitDy=0;entryX=0.5;entryY=0;entryDx=0;entryDy=0;" edge="1" parent="1" source="rQJpm7YTAjzAsKCCHpnl-4" target="rQJpm7YTAjzAsKCCHpnl-12">
          <mxGeometry width="50" height="50" relative="1" as="geometry">
            <mxPoint x="450" y="280" as="sourcePoint" />
            <mxPoint x="350" y="310" as="targetPoint" />
          </mxGeometry>
        </mxCell>
        <mxCell id="rQJpm7YTAjzAsKCCHpnl-19" value="" style="endArrow=classic;html=1;entryX=0;entryY=0;entryDx=0;entryDy=0;" edge="1" parent="1" target="rQJpm7YTAjzAsKCCHpnl-14">
          <mxGeometry width="50" height="50" relative="1" as="geometry">
            <mxPoint x="600" y="270" as="sourcePoint" />
            <mxPoint x="510" y="310" as="targetPoint" />
          </mxGeometry>
        </mxCell>
        <mxCell id="rQJpm7YTAjzAsKCCHpnl-12" value="&lt;p&gt;&lt;font style=&quot;line-height: 100% ; font-size: 13px&quot;&gt;class page_Quizzes(tk.Frame)&lt;/font&gt;&lt;/p&gt;" style="swimlane;html=1;fontStyle=1;align=center;verticalAlign=top;childLayout=stackLayout;horizontal=1;startSize=40;horizontalStack=0;resizeParent=1;resizeLast=0;collapsible=1;marginBottom=0;swimlaneFillColor=#ffffff;rounded=0;shadow=0;comic=0;labelBackgroundColor=none;strokeWidth=1;fillColor=none;fontFamily=Verdana;fontSize=12" vertex="1" parent="1">
          <mxGeometry x="375" y="310" width="250" height="90" as="geometry">
            <mxRectangle x="40" y="40" width="230" height="40" as="alternateBounds" />
          </mxGeometry>
        </mxCell>
        <mxCell id="rQJpm7YTAjzAsKCCHpnl-13" value="&lt;b&gt;def __init__&lt;/b&gt;(self, parent, controller)" style="rounded=0;whiteSpace=wrap;html=1;" vertex="1" parent="rQJpm7YTAjzAsKCCHpnl-12">
          <mxGeometry y="40" width="250" height="24" as="geometry" />
        </mxCell>
        <mxCell id="rQJpm7YTAjzAsKCCHpnl-14" value="&lt;p&gt;&lt;font style=&quot;line-height: 100% ; font-size: 13px&quot;&gt;class page_Mgmt(tk.Frame)&lt;/font&gt;&lt;/p&gt;" style="swimlane;html=1;fontStyle=1;align=center;verticalAlign=top;childLayout=stackLayout;horizontal=1;startSize=40;horizontalStack=0;resizeParent=1;resizeLast=0;collapsible=1;marginBottom=0;swimlaneFillColor=#ffffff;rounded=0;shadow=0;comic=0;labelBackgroundColor=none;strokeWidth=1;fillColor=none;fontFamily=Verdana;fontSize=12" vertex="1" parent="1">
          <mxGeometry x="655" y="310" width="250" height="90" as="geometry">
            <mxRectangle x="40" y="40" width="230" height="40" as="alternateBounds" />
          </mxGeometry>
        </mxCell>
        <mxCell id="rQJpm7YTAjzAsKCCHpnl-15" value="&lt;b&gt;def __init__&lt;/b&gt;(self, parent, controller)" style="rounded=0;whiteSpace=wrap;html=1;" vertex="1" parent="rQJpm7YTAjzAsKCCHpnl-14">
          <mxGeometry y="40" width="250" height="24" as="geometry" />
        </mxCell>
        <mxCell id="rQJpm7YTAjzAsKCCHpnl-7" value="&lt;p&gt;&lt;font style=&quot;line-height: 100% ; font-size: 13px&quot;&gt;class page_Training(tk.Frame)&lt;/font&gt;&lt;/p&gt;" style="swimlane;html=1;fontStyle=1;align=center;verticalAlign=top;childLayout=stackLayout;horizontal=1;startSize=40;horizontalStack=0;resizeParent=1;resizeLast=0;collapsible=1;marginBottom=0;swimlaneFillColor=#ffffff;rounded=0;shadow=0;comic=0;labelBackgroundColor=none;strokeWidth=1;fillColor=none;fontFamily=Verdana;fontSize=12" vertex="1" parent="1">
          <mxGeometry x="100" y="310" width="240" height="90" as="geometry">
            <mxRectangle x="40" y="40" width="230" height="40" as="alternateBounds" />
          </mxGeometry>
        </mxCell>
        <mxCell id="rQJpm7YTAjzAsKCCHpnl-9" value="&lt;b&gt;def __init__&lt;/b&gt;(self, parent, controller)" style="rounded=0;whiteSpace=wrap;html=1;" vertex="1" parent="rQJpm7YTAjzAsKCCHpnl-7">
          <mxGeometry y="40" width="240" height="24" as="geometry" />
        </mxCell>
        <mxCell id="rQJpm7YTAjzAsKCCHpnl-23" value="" style="endArrow=classic;html=1;entryX=0.5;entryY=0;entryDx=0;entryDy=0;exitX=0.75;exitY=1;exitDx=0;exitDy=0;" edge="1" parent="1" source="rQJpm7YTAjzAsKCCHpnl-14" target="rQJpm7YTAjzAsKCCHpnl-21">
          <mxGeometry width="50" height="50" relative="1" as="geometry">
            <mxPoint x="610" y="280" as="sourcePoint" />
            <mxPoint x="665" y="320" as="targetPoint" />
          </mxGeometry>
        </mxCell>
        <mxCell id="rQJpm7YTAjzAsKCCHpnl-21" value="&lt;p&gt;&lt;font style=&quot;line-height: 100% ; font-size: 13px&quot;&gt;class page_Roster(tk.Frame)&lt;/font&gt;&lt;/p&gt;" style="swimlane;html=1;fontStyle=1;align=center;verticalAlign=top;childLayout=stackLayout;horizontal=1;startSize=40;horizontalStack=0;resizeParent=1;resizeLast=0;collapsible=1;marginBottom=0;swimlaneFillColor=#ffffff;rounded=0;shadow=0;comic=0;labelBackgroundColor=none;strokeWidth=1;fillColor=none;fontFamily=Verdana;fontSize=12" vertex="1" parent="1">
          <mxGeometry x="780" y="430" width="250" height="90" as="geometry">
            <mxRectangle x="40" y="40" width="230" height="40" as="alternateBounds" />
          </mxGeometry>
        </mxCell>
        <mxCell id="rQJpm7YTAjzAsKCCHpnl-22" value="&lt;b&gt;def __init__&lt;/b&gt;(self, parent, controller)" style="rounded=0;whiteSpace=wrap;html=1;" vertex="1" parent="rQJpm7YTAjzAsKCCHpnl-21">
          <mxGeometry y="40" width="250" height="24" as="geometry" />
        </mxCell>
      </root>
    </mxGraphModel>
  </diagram>
</mxfile>
